<svg viewBox="0 0 1001 324" fill="none" xmlns="http://www.w3.org/2000/svg"><g clip-path="url(#clip0)"><path d="M810 34.65H668.25v254.7H810V34.65z" fill="#FF5F00"/><path d="M677.25 162c0-51.75 24.3-97.65 61.65-127.35C711.45 13.05 676.8 0 639 0c-89.55 0-162 72.45-162 162s72.45 162 162 162c37.8 0 72.45-13.05 99.9-34.65-37.35-29.25-61.65-75.6-61.65-127.35z" fill="#EB001B"/><path d="M1001.25 162c0 89.55-72.45 162-162 162-37.8 0-72.45-13.05-99.9-34.65C777.15 259.65 801 213.75 801 162s-24.3-97.65-61.65-127.35C766.8 13.05 801.45 0 839.25 0c89.55 0 162 72.9 162 162z" fill="#F79E1B"/><rect x="477" width="524" height="324" rx="80" fill="#CECECE"/></g><defs><clipPath id="clip0"><path fill="#fff" d="M0 0h1001v324H0z"/></clipPath></defs></svg>