<svg viewBox="0 0 1001 324" fill="none" xmlns="http://www.w3.org/2000/svg">
	<path d="M433.352 318.984h-81.01L403.011 5.679h81.007l-50.666 313.305zM727.023 13.339C711.045 6.999 685.701 0 654.363 0c-80 0-136.336 42.66-136.682 103.652-.664 45 40.335 69.994 70.999 84.998 31.342 15.332 41.996 25.339 41.996 39.006-.319 20.989-25.326 30.664-48.65 30.664-32.343 0-49.673-4.988-76.009-16.666l-10.667-5.005-11.337 70.33c19.001 8.656 54.006 16.337 90.35 16.674 85.002 0 140.341-42 140.996-106.997.324-35.665-21.325-62.994-68-85.325-28.334-14.336-45.686-24.002-45.686-38.67.333-13.334 14.677-26.991 46.661-26.991 26.336-.67 45.686 5.661 60.345 11.996l7.327 3.327 11.017-67.654zM834.694 207.991c6.671-17.999 32.343-87.66 32.343-87.66-.337.669 6.658-18.331 10.658-29.995l5.662 26.996s15.341 74.995 18.672 90.659h-67.335zM934.691 5.679h-62.662c-19.323 0-34.004 5.662-42.341 25.995L709.357 318.98h85.002s13.994-38.669 17.002-46.997h104.011c2.326 11 9.666 46.997 9.666 46.997h75.012l-65.359-313.3zM284.678 5.68l-79.336 213.643-8.669-43.329C182.005 125.997 136.004 71.677 84.67 44.667l72.669 273.985h85.667L370.34 5.679h-85.662z" fill="#00579F" />
	<path d="M131.672 5.68H1.333L0 12.01c101.672 26 169.008 88.67 196.673 163.997L168.339 32.015c-4.665-20.01-19.001-25.676-36.667-26.336z" fill="#FAA61A" />
</svg>
