<svg viewBox="0 0 299 56" fill="none" xmlns="http://www.w3.org/2000/svg"><g clip-path="url(#clip0)"><path d="M260.45 0a1.94 1.94 0 00-1.941 1.94v13.606h35.941L278.083.001 260.45 0zM295.765 19.663a1.933 1.933 0 00-1.941-1.94h-13.603v35.943l15.538-16.375.006-17.628zM276.1 54.968c1.07 0 1.939-.87 1.939-1.944V39.422h-35.943l16.37 15.543 17.634.002zM240.783 35.307c0 1.073.868 1.947 1.943 1.947h13.6V1.309l-15.541 16.37-.002 17.628z" fill="#117ACA"/><path d="M76.041 6.561V23.16H52.916V6.561l-8.422-.007v41.852h8.422v-17.98h23.125v17.98h8.437V6.561H76.04zM188.088 6.561v41.835h36.951l-4.68-7.365h-23.825V30.426h23.07v-7.093h-23.07v-9.58h23.785l4.585-7.192h-36.816zM13.186 6.551C4.425 6.551 0 11.877 0 19.628V35.25c0 8.969 5.702 13.156 13.143 13.156l26.425-.002-4.9-7.65H14.776c-4.226 0-6.067-1.528-6.067-6.258V20.322c0-4.572 1.55-6.356 6.18-6.356h19.988l4.704-7.415H13.186zM151.128 6.541c-5.06 0-10.247 3.041-10.247 10.864v2.01c0 8.155 4.99 11.266 9.983 11.288h17.524c1.82 0 3.298.302 3.298 3.378l-.002 3.554c-.046 2.764-1.425 3.396-3.359 3.396h-23.054l-4.722 7.365h28.319c6.828 0 11.465-3.397 11.465-11.245v-2.884c0-7.587-4.308-11.172-10.987-11.172h-16.732c-1.855 0-3.148-.506-3.148-3.254v-2.893c0-2.34.887-3.194 3.048-3.194l21.955-.009 4.589-7.214-27.93.01zM108.948 6.561L89.104 48.404h9.379l3.865-8.642h21.563l3.853 8.642h9.42L117.294 6.56h-8.346zm4.161 8.688l7.625 17.391h-15.201l7.576-17.391z" fill="#211E1E"/></g><defs><clipPath id="clip0"><path fill="#fff" d="M0 0h298.723v55.517H0z"/></clipPath></defs></svg>